HIERARCHY
ROOT Hips
{
	OFFSET 0.00000 0.00000 0.00000
	CHANNELS 6 Xposition Yposition Zposition Zrotation Yrotation Xrotation 
	JOINT LHipJoint
	{
		OFFSET 0 0 0
		CHANNELS 3 Zrotation Yrotation Xrotation
		JOINT LeftHip
		{
			OFFSET 1.34019 -1.87553 0.90315
			CHANNELS 3 Zrotation Yrotation Xrotation
			JOINT LeftKnee
			{
				OFFSET 2.55316 -7.01474 0.00000
				CHANNELS 3 Zrotation Yrotation Xrotation
				JOINT LeftAnkle
				{
					OFFSET 2.64657 -7.27139 0.00000
					CHANNELS 3 Zrotation Yrotation Xrotation
					JOINT LeftToe
					{
						OFFSET 0.24207 -0.66507 2.14489
						CHANNELS 3 Zrotation Yrotation Xrotation
						End Site
						{
							OFFSET 0.00000 -0.00000 1.12451
						}
					}
				}
			}
		}
	}
	JOINT RHipJoint
	{
		OFFSET 0 0 0
		CHANNELS 3 Zrotation Yrotation Xrotation
		JOINT RightHip
		{
			OFFSET -1.28320 -1.87553 0.90315
			CHANNELS 3 Zrotation Yrotation Xrotation
			JOINT RightKnee
			{
				OFFSET -2.60484 -7.15674 0.00000
				CHANNELS 3 Zrotation Yrotation Xrotation
				JOINT RightAnkle
				{
					OFFSET -2.60296 -7.15159 0.00000
					CHANNELS 3 Zrotation Yrotation Xrotation
					JOINT RightToe
					{
						OFFSET -0.31082 -0.85398 2.28998
						CHANNELS 3 Zrotation Yrotation Xrotation
						End Site
						{
							OFFSET -0.00000 -0.00000 1.21611
						}
					}
				}
			}
		}
	}
	JOINT lowerback
	{
		OFFSET 0 0 0
		CHANNELS 3 Zrotation Yrotation Xrotation
		JOINT Chest
		{
			OFFSET -0.00160 2.05581 -0.15156
			CHANNELS 3 Zrotation Yrotation Xrotation
			JOINT Chest2
			{
				OFFSET 0.04594 2.06326 -0.01617
				CHANNELS 3 Zrotation Yrotation Xrotation
				JOINT lowerneck
				{
					OFFSET 0 0 0
					CHANNELS 3 Zrotation Yrotation Xrotation
					JOINT Neck
					{
						OFFSET 0.03753 1.73883 0.26751
						CHANNELS 3 Zrotation Yrotation Xrotation
						JOINT Head
						{
							OFFSET -0.09795 1.76129 -0.31794
							CHANNELS 3 Zrotation Yrotation Xrotation
							End Site
							{
								OFFSET -0.03611 1.79987 -0.13846
							}
						}
					}
				}
				JOINT LeftCollar
				{
					OFFSET 0 0 0
					CHANNELS 3 Zrotation Yrotation Xrotation
					JOINT LeftShoulder
					{
						OFFSET 3.30667 1.29205 -0.22445
CHANNELS 3 Zrotation Xrotation Yrotation
						JOINT LeftElbow
						{
OFFSET 0 -4.927850 -0.000000
CHANNELS 3 Zrotation Xrotation Yrotation
							JOINT LeftWrist
							{
OFFSET 0 -3.440520 0.000000
CHANNELS 3 Zrotation Xrotation Yrotation
								JOINT lhand
								{
									OFFSET 0 0 0
CHANNELS 3 Zrotation Xrotation Yrotation
									JOINT LFingers
									{
OFFSET 0 -0.654330 0.000000
CHANNELS 3 Zrotation Xrotation Yrotation
										End Site
										{
OFFSET 0 -0.527530 0.000000
										}
									}
								}
								JOINT LThumb
								{
OFFSET 0 0.000000 0.000000
CHANNELS 3 Zrotation Xrotation Yrotation
									End Site
									{
OFFSET 0 -0.535590 0.535590
									}
								}
							}
						}
					}
				}
				JOINT RightCollar
				{
					OFFSET 0 0 0
					CHANNELS 3 Zrotation Yrotation Xrotation
					JOINT RightShoulder
					{
						OFFSET -3.20032 1.49783 -0.27688
CHANNELS 3 Zrotation Xrotation Yrotation
						JOINT RightElbow
						{
OFFSET 0 -5.091810 -0.000000
CHANNELS 3 Zrotation Xrotation Yrotation
							JOINT RightWrist
							{
OFFSET 0 -3.498650 -0.000000
CHANNELS 3 Zrotation Xrotation Yrotation
								JOINT rhand
								{
									OFFSET 0 0 0
CHANNELS 3 Zrotation Xrotation Yrotation
									JOINT RFingers
									{
OFFSET 0 -0.666410 0.000000
CHANNELS 3 Zrotation Xrotation Yrotation
										End Site
										{
OFFSET 0 -0.537280 0.000000
										}
									}
								}
								JOINT RThumb
								{
OFFSET 0 0.000000 0.000000
CHANNELS 3 Zrotation Xrotation Yrotation
									End Site
									{
OFFSET 0 -0.545480 0.545480
									}
								}
							}
						}
					}
				}
			}
		}
	}
}
MOTION
Frames: 4
Frame Time: 0.008333333333333333
1.622491 17.863140 -30.028985 360.067843 -1.127974 2.015119 0.000000 0.000000 0.000000 -21.832204 -13.576311 8.458262 0.594702 4.935962 13.726275 0.349656 -9.916425 -11.777022 0.106078 -2.100277 -5.782839 0.000000 0.000000 0.000000 4.922362 30.899031 -20.483973 -8.610562 -16.550474 54.733254 0.641085 20.425282 -8.437402 -0.432871 4.221959 -11.702079 -3.573781 3.417429 7.879550 1.846409 4.313496 -0.843174 3.375714 2.271174 -5.712388 5.766368 2.541762 -16.488634 -0.112089 1.986655 28.282067 -0.720619 1.515843 12.128759 0.000000 0.000000 0.000000 11.611779 10.243353 -40.374312 19.084825 -29.523951 5.072671 4.542115 4.808674 3.216675 0.000000 0.000000 0.000000 -7.125000 0.000000 0.000000 -16.655118 26.646224 -7.726052 0.000000 0.000000 0.000000 -6.930085 15.017144 15.740615 -17.341379 -27.305576 -4.242785 -16.304477 4.300856 -1.660570 0.000000 0.000000 0.000000 7.125000 0.000000 0.000000 7.940760 28.216922 3.271536
1.560308 17.839054 -29.617213 361.035332 0.280920 -0.598543 0.000000 0.000000 0.000000 -23.181354 -10.605777 18.760756 0.015947 0.685365 1.884122 0.032511 -9.169002 -6.987144 0.112788 -2.165112 -5.962196 0.000000 0.000000 0.000000 3.656167 31.074453 -20.634603 -6.869919 -15.220362 48.378830 0.526358 19.988520 -9.192280 -0.498707 4.527387 -12.565263 -3.473219 2.057690 10.871138 1.587430 2.399015 0.006573 3.240682 1.311284 -6.313804 5.180518 2.365753 -16.095451 -0.124373 1.927480 27.452968 -0.642574 1.406190 11.708982 0.000000 0.000000 0.000000 10.696771 7.610810 -42.110728 18.522520 -28.821009 4.798499 5.201405 4.532055 3.922001 0.000000 0.000000 0.000000 -7.125000 0.000000 0.000000 -16.074451 25.970683 -7.701122 0.000000 0.000000 0.000000 -6.375527 16.028723 15.370232 -16.467297 -26.150169 -3.849617 -16.482930 6.214916 -2.552486 0.000000 0.000000 0.000000 7.125000 0.000000 0.000000 7.744627 27.294880 3.359348
1.435871 17.744717 -29.086900 361.885763 0.376496 0.126803 0.000000 0.000000 0.000000 -23.666823 -9.525570 20.625452 0.000000 0.000000 0.000000 0.041630 -9.441359 -7.331210 0.142938 -2.436072 -6.712556 0.000000 0.000000 0.000000 1.885411 30.141110 -22.500246 -4.182772 -12.399326 37.160321 -0.105740 14.827793 -11.561974 -0.491010 4.492677 -12.467062 -2.236784 -0.559906 10.653751 0.952172 -0.965471 -0.251046 2.414257 -0.387805 -6.195004 4.325109 2.617008 -16.454633 -0.027026 2.462876 25.731118 -0.388791 1.539101 11.119072 0.000000 0.000000 0.000000 9.642276 6.794526 -42.743812 20.185419 -30.865084 5.626175 7.117952 2.042550 3.289703 0.000000 0.000000 0.000000 -7.125000 0.000000 0.000000 -14.739081 26.588913 -6.795761 0.000000 0.000000 0.000000 -6.935198 16.649917 18.381253 -15.848576 -25.314966 -3.581029 -14.891979 5.885303 -0.988584 0.000000 0.000000 0.000000 7.125000 0.000000 0.000000 9.083413 28.905108 3.602493
1.219742 17.587722 -28.397187 362.753364 -0.761542 0.218892 0.000000 0.000000 0.000000 -23.927551 -7.206357 22.408186 0.000000 0.000000 0.000000 0.108841 -10.258361 -8.844304 0.233390 -3.108629 -8.581337 0.000000 0.000000 0.000000 2.944151 27.769296 -22.848753 -3.234373 -11.065166 32.499949 -0.400394 10.948645 -12.736850 -0.428180 4.199408 -11.638337 -1.759109 -2.065197 10.718523 0.681919 -2.927894 -0.347906 2.169815 -1.368256 -6.256868 4.627534 2.807923 -17.042202 -0.675795 2.778796 24.773887 -0.626644 1.613990 10.898180 0.000000 0.000000 0.000000 8.632481 4.989562 -45.292349 21.339037 -32.221954 6.229733 7.920006 0.263258 3.569913 0.000000 0.000000 0.000000 -7.125000 0.000000 0.000000 -14.109745 26.315945 -6.581309 0.000000 0.000000 0.000000 -7.317365 17.249281 18.019842 -14.761143 -23.812289 -3.128896 -14.830866 6.982217 -0.980500 0.000000 0.000000 0.000000 7.125000 0.000000 0.000000 9.131489 28.913077 3.620171
